# xmcd CD database file
#
# Track frame offsets:
#	183
#	13538
#	27858
#	42638
#	57145
#	71360
#	85860
#	99380
#	112570
#	127233
#	142183
#	158195
#	172670
#	185450
#	200795
#	214508
#	229695
#	242993
#	256590
#	271210
#
# Disc length: 3809 seconds
#
# Revision: 0
# Processed by: cddbd v1.5.2PL0 Copyright (c) Steve Scherf et al.
# Submitted via: CDex 1.99.1
#
DISCID=0d0edf14
DTITLE=Various Artist - The Piano Blues Vocalion 1928 - 1930
DYEAR=1900
DGENRE=Blues
TTITLE0=Cow Cow Davenport - Back In The Alley
TTITLE1=Bert M.Mays - Michigan River Blues
TTITLE2=Joe Dean - I'm So Glad I'm 21 Years Old Today
TTITLE3=Lee Green - Memphis Fives
TTITLE4=Jim Clark - Fat Fanny Stomp
TTITLE5=Cow Cow Davenport - Cow Cow Blues
TTITLE6=Romeo Nelson - Gettin' Dirty Just Shakin' That Thing
TTITLE7=Dan Stewart - New Orleans Blues
TTITLE8=Pine Top Smith - Pine Top's Boogie Woogie
TTITLE9=Bert M.Mays - You Can't Come In
TTITLE10=Montana Taylor - Indiana Avenue Stomp
TTITLE11=Cow Cow Davenport - Slum Gullion Stomp
TTITLE12=Pine Top Smith - Pine Top Blues
TTITLE13=Montana Taylor - Detroit Rocks
TTITLE14=Tampa Red - Black Hearted Blues
TTITLE15=Pine Top Smith - Jump Steady Blues
TTITLE16=Joe Dean - Mexico Bound Blues
TTITLE17=Romeo Nelson - Head Rag Hop
TTITLE18=Cow Cow Davenport - Texas Shout
TTITLE19=Montana Taylor - Whoop And Holler Stomp
EXTD=
EXTT0=
EXTT1=
EXTT2=
EXTT3=
EXTT4=
EXTT5=
EXTT6=
EXTT7=
EXTT8=
EXTT9=
EXTT10=
EXTT11=
EXTT12=
EXTT13=
EXTT14=
EXTT15=
EXTT16=
EXTT17=
EXTT18=
EXTT19=
PLAYORDER=
